<svg width="567" height="57" viewBox="0 0 567 57" fill="none" xmlns="http://www.w3.org/2000/svg">
<path d="M565.684 54.5932C562.897 55.8228 557.979 56.6425 553.47 56.6425C540.437 56.6425 530.518 47.3797 530.518 35.0019C530.518 22.6242 540.437 13.3613 553.47 13.3613C557.979 13.3613 562.897 14.181 565.684 15.6565V26.3949H564.701C562.241 24.7554 558.389 23.4439 553.47 23.4439C546.831 23.4439 541.093 27.7064 541.093 35.0019C541.093 42.2974 546.831 46.5599 553.47 46.5599C558.389 46.5599 562.487 45.4123 564.701 43.9368H565.684V54.5932Z" fill="#1C1A1C"/>
<path d="M522.393 52.6259C518.704 54.8391 513.13 56.6425 505.998 56.6425C492.473 56.6425 484.358 47.2977 484.358 35.0019C484.358 22.7061 492.883 13.3613 505.179 13.3613C517.475 13.3613 526 22.7061 526 35.0019C526 36.8053 525.918 37.707 525.754 38.8546H495.424C495.998 42.7073 500.342 46.5599 506.654 46.5599C512.392 46.5599 517.638 45.0845 521.245 42.8712H522.393V52.6259ZM514.769 29.8377C514.032 26.1489 510.179 23.198 505.179 23.198C500.178 23.198 496.736 25.985 495.424 29.8377H514.769Z" fill="#1C1A1C"/>
<path d="M449.274 55.4947H438.781V14.5088H449.274V29.7556H468.537V14.5088H479.029V55.4947H468.537V40.248H449.274V55.4947Z" fill="#1C1A1C"/>
<path d="M410.967 46.8059C417.36 46.8059 420.557 45.6583 420.557 42.9532C420.557 40.2481 416.95 39.3464 410.967 39.3464H403.179V30.4115H410.967C416.95 30.4115 420.557 29.3458 420.557 26.6408C420.557 23.9357 417.196 22.952 410.967 22.952C406.95 22.952 401.704 23.9357 399.163 25.0833H398.179L398.097 15.6565C400.72 14.6729 406.212 13.3613 410.967 13.3613C424.246 13.3613 430.722 17.7878 430.722 26.6408C430.722 30.4115 428.181 33.1985 425.558 34.4281V34.9199C428.263 35.7397 431.787 38.1988 431.787 42.9532C431.787 51.6422 424.246 56.6425 410.967 56.6425C406.95 56.6425 400.638 55.8228 398.097 54.6752V44.9205H399.081C401.95 46.314 407.114 46.8059 410.967 46.8059Z" fill="#1C1A1C"/>
<path d="M358.806 55.4947H348.559V14.5088H358.806V39.4282L359.215 39.5102L379.381 14.5088H389.627V55.4947H379.381V30.5753L378.971 30.4113L358.806 55.4947Z" fill="#1C1A1C"/>
<path d="M320.773 56.3147C308.231 56.3147 298.476 47.0519 298.476 28.0344C298.476 9.18086 309.379 2.37719 322.002 1.72141C325.363 1.55747 329.298 1.55747 331.757 1.39352C334.544 1.22958 337.413 0.737747 339.544 0L340.118 0.245918V10.0825C337.987 10.6563 333.888 11.1482 331.347 11.2302L322.822 11.3941C314.543 11.64 310.116 15.2468 308.559 20.8209L308.887 21.0668C312.494 17.542 317.002 15.9845 322.576 15.9845C333.314 15.9845 342.085 23.8538 342.085 36.2316C342.085 48.6093 333.15 56.3147 320.773 56.3147ZM310.034 36.2316C310.034 42.0516 314.789 46.1502 320.773 46.1502C326.675 46.1502 331.511 42.0516 331.511 36.2316C331.511 30.4116 326.675 26.4769 320.773 26.4769C314.789 26.4769 310.034 30.4116 310.034 36.2316Z" fill="#1C1A1C"/>
<path d="M273.044 55.4947H262.552V51.888L262.224 51.724C259.765 53.8553 256.24 56.6424 249.682 56.6424C238.452 56.6424 232.55 48.2812 232.55 35.0018V14.5088H243.042V33.0344C243.042 42.7071 246.567 46.4778 252.797 46.4778C259.027 46.4778 262.552 42.7071 262.552 33.0344V14.5088H273.044V55.4947Z" fill="#1C1A1C"/>
<path d="M210.098 18.2795C212.721 15.9023 217.64 14.5088 222.394 14.5088H227.64V24.8372H222.148C213.951 24.8372 209.77 29.5916 209.77 38.7725V55.4947H199.278V14.5088H209.77V18.1156L210.098 18.2795Z" fill="#1C1A1C"/>
<path d="M180.024 43.6104H192.074V55.4963H180.024V43.6104Z" fill="#1C1A1C"/>
<path d="M155.039 56.6425C142.497 56.6425 132.906 47.3797 132.906 35.0019C132.906 22.6242 142.497 13.3613 155.039 13.3613C167.58 13.3613 177.171 22.6242 177.171 35.0019C177.171 47.3797 167.58 56.6425 155.039 56.6425ZM143.481 35.0019C143.481 41.0678 148.399 46.5599 155.039 46.5599C161.678 46.5599 166.597 41.0678 166.597 35.0019C166.597 28.936 161.678 23.4439 155.039 23.4439C148.399 23.4439 143.481 28.936 143.481 35.0019Z" fill="#1C1A1C"/>
<path d="M128.83 45.249V55.4955H118.829C107.681 55.4955 100.303 47.7902 100.303 36.8879V6.14844H110.796V14.5096H128.83V24.5921H110.796V33.691C110.796 41.4783 114.731 45.249 122.518 45.249H128.83Z" fill="#1C1A1C"/>
<path d="M92.5459 55.4947H82.0535V51.888L81.7256 51.724C79.2664 53.8553 75.7416 56.6424 69.1839 56.6424C57.9537 56.6424 52.0518 48.2812 52.0518 35.0018V14.5088H62.5442V33.0344C62.5442 42.7071 66.069 46.4778 72.2988 46.4778C78.5287 46.4778 82.0535 42.7071 82.0535 33.0344V14.5088H92.5459V55.4947Z" fill="#1C1A1C"/>
<path d="M10.8203 35.0019C10.8203 41.0678 15.8206 46.7239 22.3783 46.7239C28.9361 46.7239 33.9364 41.0678 33.9364 35.0019C33.9364 28.936 28.9361 23.2799 22.3783 23.2799C15.8206 23.2799 10.8203 28.936 10.8203 35.0019ZM44.2648 14.5089V55.4949H33.9364V51.8881L33.6085 51.7242C31.1493 53.9374 27.2147 56.6425 20.411 56.6425C8.44311 56.6425 0 47.0518 0 35.0019C0 22.952 8.44311 13.3613 20.411 13.3613C27.2147 13.3613 31.1493 16.0664 33.6085 18.2796L33.9364 18.1157V14.5089H44.2648Z" fill="#1C1A1C"/>
</svg>
